<svg xmlns="http://www.w3.org/2000/svg" viewBox="0 0 513 486"><title>Online-shopping-Mauritius-logo</title><path d="M386.69-1.14c2-.33,3.4,1.1,5,1.84l1.6,1.08c2.64,3.82,3.22,8.13,3.19,12.64-.06,8.61.15,17.22-.1,25.82-.09,3.39.72,4.47,4.29,4.43,16.24-.21,32.48,0,48.71-.14a24.28,24.28,0,0,1,13.16,3.19l2,2.85c.07,1.07,1.32,1.81.85,3-1.11,1.07-.82,2.45-.82,3.75q0,32,0,64.05c0,1.43-.39,3,1.18,4l-.08.16c.75,2.59,2.93,1.72,4.58,1.73,8.15.09,16.3.14,24.45,0,2.91,0,6,.92,8.76-.76,3,0,4.67,2.47,6.94,3.84l2.19,5.93-1.92,13.06c-.25,1.59-.5,3.18-.76,4.76l-5.07,30q-1,6-2.06,12.07-1.45,8.43-2.9,16.85l-2.19,13.07L492.11,260l-1.35,7.06q-1.9,11.4-3.8,22.81-.6,3.56-1.19,7.11-1.9,10.92-3.8,21.82l-1.2,5.1-2.22,6.92a67.42,67.42,0,0,1-10,13.95l-2,2a73.55,73.55,0,0,1-14.92,8.83c-3.44.26-6.53,2.24-10.06,2-1.23-1.24-2.8-.82-4.26-.82q-141.41,0-282.82,0c-1.54,0-3.44-.68-4.35,1.42-2.5.84-5.39.46-7.52,2.43-2.46.38-4.15,1.92-5.68,3.71-4.7,3.61-6.78,8.6-7.52,14.29-1.05,3.49,0,6.78,1,10.08,1.53,3.7,3,7.42,6.62,9.7,2.66,3.22,6.53,4.25,10.19,5.65,1.3,2.76,3.81,1.51,5.73,1.51q148.69.11,297.37,0c1.76,0,3.68.61,5.26-.81,2.3-.3,3.93,1.48,6,1.92l3.74,5c1.21,9.7-1.36,13.84-9.74,15.7-1.4-1.33-3.15-.81-4.75-.81q-148.32,0-296.65,0c-1.72,0-3.71-.74-5.09,1.07-3.81,1.66-6.55-2.19-10.09-1.93-12.27-3.77-21.17-11.7-27.77-22.46-.83-1.92-1.65-3.85-2.47-5.77-.64-2.27-1.29-4.54-1.93-6.81l-.9-12.08c.2-1.63.39-3.26.61-4.89,1.58-11.33,7.73-20.1,15.61-27.9,5.35-1.94,6.1-5.5,4.64-10.72-1.76-6.28-2.63-12.81-3.89-19.23l-2.19-11.07q-1.89-9.92-3.8-19.83l-2.17-11-7-36.16-.06,0-.7-3.68L105.59,227,102,208.23q-1.19-6.07-2.35-12.13-1.83-9.4-3.65-18.79-2.08-11-4.19-22.08-1.94-9.9-3.88-19.8-1-5.56-2.11-11.12-1.93-9.9-3.88-19.8Q80.86,99,79.8,93.4c-1.56-8.23-3.16-16.46-4.66-24.7-.66-3.63-1.73-7-4.67-9.47l-.55,0,.65-.06c0,5.76.56,11.54-.45,17.28a67.26,67.26,0,0,1-7,13.83l-3,3.14a55.52,55.52,0,0,1-13,7.68,48,48,0,0,1-18.83,1L18.57,98.3l-10.27-9-5-8.85a6.74,6.74,0,0,0-1.1-3.95c-.62-5-1.27-10-.26-15,.45-2,.91-3.93,1.36-5.89L7.4,47.9A65.84,65.84,0,0,1,18.58,37.73l4.68-2.26L24.6,35l-.08.15,3-1.18,0,.12c9.35-1.25,18.77-.83,28.16-1.05,7.23-.17,14.48.15,21.36,2.87a38.12,38.12,0,0,1,19.75,22.7q1.74,9.42,3.49,18.84l2.18,12q2.91,16.41,5.81,32.83l.9,3.76c1,1.93,2.89,1.23,4.43,1.25,5.44.08,10.89.18,16.32,0,3.37-.13,6.89,1,10.11-.88.94-1.35,1.84-2.7,0-4.06q1.59-8,3.2-16l5-12.24q2.57-4.27,5.12-8.55l4.67-5.94,1.08-1.12,0,.06,10-9-.06,0,1.38-1,10.61-6c1.21.18,2-.71,2.91-1.2L195,57.91c3.26-.45,6.56-1.49,9.76-1.23,4.91.39,5.86-1.49,5.78-6-.25-14,0-27.95,0-41.92,1.13-5.2,3.76-9,9.42-9.84,1.59,1.37,3.51.76,5.27.77q78.07,0,156.15,0C383.2-.34,385.12.28,386.69-1.14Zm31.95,127.48a56.37,56.37,0,0,0,24,0q.17-27.54.34-55.08c0-2.55-.71-3.6-3.66-3.56-13.25.2-26.51.16-39.76,0-2.86,0-3.64.9-3.62,3.7.12,16.92.15,33.84,0,50.76,0,3.48,1.25,4.1,4.33,4C406.35,126,412.5,126.27,418.64,126.34ZM146.22,313.92c0,1.13-.12,2.32.8,3.23-.16,4.19,1.66,8.07,2,12.16s1.75,5.67,6.35,5.67q140.2-.25,280.4-.13a23,23,0,0,0,22.85-18.26c1.42-6.61,2.45-13.3,3.59-20q5.24-30.5,10.41-61,4.78-28.29,9.53-56.6c1.65-9.8,3.31-19.61,5-29.55H465.58c-1.17,0-2.33-.16-3.49-.16H117.61c-1.29,0-2.58.14-4.1.22,3.12,15.85,6.16,31.43,9.25,47q7.63,38.58,15.34,77.17c2.57,12.8,5.3,25.56,8,38.34C146.11,312.69,146.16,313.31,146.22,313.92Zm180.57-240c0-16.1-.06-32.21.06-48.31,0-2.89-.5-4-3.76-4q-42.88.2-85.78,0c-2.88,0-3.66,1-3.61,3.72.15,8.3.43,16.62-.06,24.9-.42,7.08-.11,13.06,8.7,14.25a4,4,0,0,1,1.35.61c22,13.09,34.59,32,36.13,57.84.16,2.62,1.12,3.6,3.61,3.39,13-1.08,26,.18,39.07,0,3.56,0,4.41-1.12,4.38-4.53C326.71,105.79,326.8,89.84,326.79,73.9ZM210.45,126.21c13,0,25.93.06,38.9,0,8.54,0,8.3,1.6,6.75-8a46,46,0,0,0-57.36-36.89c-19.48,5.36-32.14,20.35-34.64,40.75-.43,3.46.74,4.23,4,4.2C182.2,126.13,196.33,126.21,210.45,126.21ZM372.93,74c0-15.79-.16-31.58.11-47.36.08-4.3-1.28-5.41-5.32-5.09a82.86,82.86,0,0,1-13.46,0c-4-.34-4.66,1.23-4.56,4.79.24,8.8.08,17.61.08,26.42,0,22.93.09,45.87-.09,68.8,0,3.8,1,4.93,4.75,4.67a86.4,86.4,0,0,1,13.46,0c4.39.39,5.18-1.4,5.12-5.36C372.81,105.26,372.93,89.64,372.93,74ZM47.42,67.94A11.2,11.2,0,0,0,36.17,56.55c-6.34.05-11.61,5.16-11.56,11.22A11.69,11.69,0,0,0,36.32,79.48,11.23,11.23,0,0,0,47.42,67.94Z" fill="#024363"/><path d="M406.68,483.55c-5.08,2.52-10.51,2.11-15.92,1.9-9.68-3.32-16.27-9.36-17.55-20-.2-5.22.5-10.24,3.23-14.83a1,1,0,0,0,.34-.88c4.9-6,10.88-10,18.87-10.31l9.39,1.46a29.85,29.85,0,0,1,12.59,11.77l0,0a2.34,2.34,0,0,0,.28.93c3.72,10.35,1.24,19.23-6.36,26.91Z" fill="#024363"/><path d="M167.15,474.83c-.81-2.14-1.63-4.27-2.44-6.4-1.87-6.31-.22-12.15,2.37-17.86l1.25-1.83c4.67-5.39,10.39-8.77,17.62-9.33A29.66,29.66,0,0,1,197,441.47c5.17,2.67,8.73,6.94,11.78,11.73,2.92,9.55,1.64,18.29-5,26L196,484.45c-5.24,1.16-10.49,1.86-15.79.37l-7-3.38-1.13-1.05.06,0C170.46,478.56,168.81,476.69,167.15,474.83Z" fill="#014262"/><path d="M146.06,312.07c-2.66-12.78-5.39-25.54-8-38.34q-7.74-38.58-15.34-77.17c-3.09-15.58-6.13-31.16-9.25-47,1.52-.08,2.81-.22,4.1-.22H462.09c1.16,0,2.32.11,3.49.16-2.56,7.87-3.33,16.12-4.86,24.19-3.14,16.51-5.8,33.11-8.67,49.68q-4.69,27-9.43,54.06c-1.12,6.33-1.78,12.84-3.84,18.86-3.58,10.45-12.54,15.63-25.15,15.63H152.54C150.38,311.91,148.22,312,146.06,312.07ZM326.8,230.26q0,22.68,0,45.37c0,7.74,4.47,12.62,11.49,12.62,6.84,0,11.48-5.07,11.48-12.75q0-45.1,0-90.23c0-7.28-5.33-13.08-11.63-12.92-6.69.17-11.33,5.47-11.34,13.05Q326.79,207.83,326.8,230.26Zm69.62-.1c0,14.44,0,28.88,0,43.32,0,3.27-.23,6.63,1.83,9.58a12.34,12.34,0,0,0,13.56,4.82c4.34-1.34,7.76-6.41,7.82-12.12.1-10.95,0-21.91,0-32.86,0-18.92-.07-37.84,0-56.76,0-9.16-6.83-15.51-15.26-12.94-5.14,1.57-8,5.65-8,12.65C396.37,200.62,396.42,215.39,396.42,230.16Zm-116.48.2h0c0-15.14-.07-30.29,0-45.43.05-7.63-4.77-12.2-11.77-12.49-6.15-.25-11.3,5.63-11.31,12.68q-.12,45.34,0,90.7c0,7.47,4.75,12.35,11.3,12.42,7.08.08,11.58-4.51,11.65-12.44C280,260.65,279.94,245.51,279.94,230.36Zm-69.69.07h0q0-22.17,0-44.33c0-4.22-.41-8.27-4.3-11s-8.13-3.32-12.47-1.18c-4.93,2.43-6.42,7-6.44,12q-.15,44.57,0,89.15c0,4.21,1.21,8.16,4.7,10.93a11.58,11.58,0,0,0,18.52-9.23Q210.23,253.58,210.25,230.43Z" fill="#fdca5d"/><path d="M146.06,312.07c2.16-.05,4.32-.16,6.48-.16H413.63c12.61,0,21.57-5.18,25.15-15.63,2.06-6,2.72-12.53,3.84-18.86q4.78-27,9.43-54.06c2.87-16.57,5.53-33.17,8.67-49.68,1.53-8.07,2.3-16.32,4.86-24.19h21.53c-1.67,9.94-3.33,19.75-5,29.55q-4.75,28.31-9.53,56.6-5.18,30.5-10.41,61c-1.14,6.67-2.17,13.36-3.59,20a23,23,0,0,1-22.85,18.26q-140.19,0-280.4.13c-4.6,0-6-1.58-6.35-5.67s-2.14-8-2-12.16c0-1.14.25-2.35-.8-3.23Z" fill="#f5b444"/><path d="M326.8,73.9c0,15.94-.09,31.89.08,47.82,0,3.41-.82,4.48-4.38,4.53-13,.22-26.05-1-39.07,0-2.49.21-3.45-.77-3.61-3.39-1.54-25.8-14.15-44.75-36.13-57.84a4,4,0,0,0-1.35-.61c-8.81-1.19-9.12-7.17-8.7-14.25.49-8.28.21-16.6.06-24.9,0-2.76.73-3.73,3.61-3.72q42.88.15,85.78,0c3.26,0,3.78,1.14,3.76,4C326.73,41.69,326.79,57.8,326.8,73.9Z" fill="#eb4649"/><path d="M210.45,126.21c-14.12,0-28.25-.08-42.38.07-3.23,0-4.4-.74-4-4.2,2.5-20.4,15.16-35.39,34.64-40.75a46,46,0,0,1,57.36,36.89c1.55,9.57,1.79,7.92-6.75,8C236.38,126.27,223.42,126.21,210.45,126.21Z" fill="#d78b38"/><path d="M418.64,126.34c-6.14-.07-12.29-.3-18.42-.15-3.08.08-4.37-.54-4.33-4,.18-16.92.15-33.84,0-50.76,0-2.8.76-3.72,3.62-3.7,13.25.14,26.51.18,39.76,0,2.95,0,3.68,1,3.66,3.56q-.19,27.54-.34,55.08Z" fill="#5fa6d6"/><path d="M372.93,74c0,15.63-.12,31.25.09,46.87.06,4-.73,5.75-5.12,5.36a86.4,86.4,0,0,0-13.46,0c-3.71.26-4.78-.87-4.75-4.67.18-22.93.09-45.87.09-68.8,0-8.81.16-17.62-.08-26.42-.1-3.56.59-5.13,4.56-4.79a82.86,82.86,0,0,0,13.46,0c4-.32,5.4.79,5.32,5.09C372.77,42.43,372.93,58.22,372.93,74Z" fill="#eb4649"/><path d="M47.42,67.94a11.23,11.23,0,0,1-11.1,11.54A11.69,11.69,0,0,1,24.61,67.77c-.05-6.06,5.22-11.17,11.56-11.22A11.2,11.2,0,0,1,47.42,67.94Z" fill="#fdca5d"/><path d="M326.8,230.26q0-22.42,0-44.86c0-7.58,4.65-12.88,11.34-13.05,6.3-.16,11.62,5.64,11.63,12.92q.06,45.12,0,90.23c0,7.68-4.64,12.74-11.48,12.75-7,0-11.48-4.88-11.49-12.62Q326.79,252.94,326.8,230.26Z" fill="#014262"/><path d="M396.42,230.16c0-14.77-.05-29.54,0-44.31,0-7,2.87-11.08,8-12.65,8.43-2.57,15.3,3.78,15.26,12.94-.1,18.92,0,37.84,0,56.76,0,10.95.07,21.91,0,32.86-.06,5.71-3.48,10.78-7.82,12.12a12.34,12.34,0,0,1-13.56-4.82c-2.06-2.95-1.81-6.31-1.83-9.58C396.38,259,396.42,244.6,396.42,230.16Z" fill="#024363"/><path d="M279.94,230.36c0,15.15.1,30.29,0,45.44-.07,7.93-4.57,12.52-11.65,12.44-6.55-.07-11.28-4.95-11.3-12.42q-.18-45.34,0-90.7c0-7.05,5.16-12.93,11.31-12.68,7,.29,11.82,4.86,11.77,12.49-.11,15.14,0,30.29,0,45.43Z" fill="#014262"/><path d="M210.25,230.43q0,23.15,0,46.31A11.58,11.58,0,0,1,191.74,286c-3.49-2.77-4.69-6.72-4.7-10.93q-.09-44.58,0-89.15c0-5,1.51-9.54,6.44-12,4.34-2.14,8.52-1.59,12.47,1.18s4.3,6.78,4.3,11q0,22.17,0,44.33Z" fill="#014262"/></svg>